<svg width="1200" height="900" viewBox="0 0 1200 900" fill="none" xmlns="http://www.w3.org/2000/svg">
  <defs>
    <linearGradient id="bg" x1="0" y1="0" x2="1200" y2="900" gradientUnits="userSpaceOnUse">
      <stop stop-color="#F8F3EA"/>
      <stop offset="0.54" stop-color="#EFE5D6"/>
      <stop offset="1" stop-color="#E4ECD9"/>
    </linearGradient>
    <filter id="shadow" x="-20%" y="-20%" width="140%" height="140%">
      <feDropShadow dx="0" dy="24" stdDeviation="30" flood-color="#4A3B32" flood-opacity="0.14"/>
    </filter>
  </defs>
  <rect width="1200" height="900" rx="54" fill="url(#bg)"/>
  <circle cx="983" cy="162" r="180" fill="#C9A66B" opacity="0.22"/>
  <circle cx="192" cy="738" r="204" fill="#C9A66B" opacity="0.14"/>
  <path d="M816 603C924 504 936 351 864 234C780 351 744 477 816 603Z" fill="#C9A66B" opacity="0.72"/>
  <path d="M408 621C300 522 276 378 336 252C432 378 468 504 408 621Z" fill="#C9A66B" opacity="0.55"/>
  <g filter="url(#shadow)">
    <rect x="528" y="243" width="156" height="342" rx="38" fill="#7A5C45" opacity="0.88"/>
    <rect x="552" y="180" width="108" height="90" rx="24" fill="#C9A66B" opacity="0.96"/>
    <rect x="570" y="342" width="72" height="117" rx="14" fill="#F8F3EA" opacity="0.80"/>
  </g>
  <rect x="264" y="657" width="672" height="25" rx="12" fill="#4A3B32" opacity="0.10"/>
  <text x="600" y="738" text-anchor="middle" font-family="Arial, sans-serif" font-size="51" font-weight="700" fill="#4A3B32" opacity="0.78">Courage</text>
  <text x="600" y="792" text-anchor="middle" font-family="Arial, sans-serif" font-size="25" fill="#806B5C" opacity="0.82">strength to begin</text>
</svg>